<svg width="16" height="16" viewBox="0 0 16 16" fill="none" xmlns="http://www.w3.org/2000/svg">
<g clip-path="url(#clip0_1_650)">
<path d="M7.99333 1.33334C4.31333 1.33334 1.32666 4.32001 1.32666 8.00001C1.32666 11.68 4.31333 14.6667 7.99333 14.6667C11.6733 14.6667 14.66 11.68 14.66 8.00001C14.66 4.32001 11.6733 1.33334 7.99333 1.33334ZM10.4 5.56001C11.1133 5.56001 11.6867 6.13334 11.6867 6.84668C11.6867 7.56001 11.1133 8.13334 10.4 8.13334C9.68666 8.13334 9.11333 7.56001 9.11333 6.84668C9.10666 6.13334 9.68666 5.56001 10.4 5.56001ZM6.39999 4.50668C7.26666 4.50668 7.97333 5.21334 7.97333 6.08001C7.97333 6.94668 7.26666 7.65334 6.39999 7.65334C5.53333 7.65334 4.82666 6.94668 4.82666 6.08001C4.82666 5.20668 5.52666 4.50668 6.39999 4.50668ZM6.39999 10.5933V13.0933C4.79999 12.5933 3.53333 11.36 2.97333 9.78668C3.67333 9.04001 5.41999 8.66001 6.39999 8.66001C6.75333 8.66001 7.19999 8.71334 7.66666 8.80668C6.57333 9.38668 6.39999 10.1533 6.39999 10.5933ZM7.99333 13.3333C7.81333 13.3333 7.63999 13.3267 7.46666 13.3067V10.5933C7.46666 9.64668 9.42666 9.17334 10.4 9.17334C11.1133 9.17334 12.3467 9.43334 12.96 9.94001C12.18 11.92 10.2533 13.3333 7.99333 13.3333Z" fill="#3C3C46"/>
</g>
<defs>
<clipPath id="clip0_1_650">
<rect width="16" height="16" fill="white"/>
</clipPath>
</defs>
</svg>
